<?xml version="1.0" standalone="no"?>
<!DOCTYPE svg PUBLIC "-//W3C//DTD SVG 1.0//EN" "http://www.w3.org/TR/2001/REC-SVG-20010904/DTD/svg10.dtd">
<svg xmlns="http://www.w3.org/2000/svg" xmlns:xlink="http://www.w3.org/1999/xlink" id="body_1" width="1024" height="768">

<g transform="matrix(1 0 0 1 0 0)">
	<g transform="matrix(1.5555123 0 0 1.5555123 128.00003 -0)">
        <path d="M404.936 92.136C 403.168 91.968 365.41602 89.168 365.41602 89.168C 365.41602 89.168 339.176 63 336.304 60.12C 333.42398 57.224 327.8 58.087997 325.60797 58.752C 325.29596 58.84 319.88797 60.528 310.93597 63.288C 302.16797 37.951996 286.71997 14.671997 259.52798 14.671997C 258.77597 14.671997 257.99997 14.703997 257.21597 14.751997C 249.488 4.488 239.904 0 231.624 0C 168.272 0 138 79.608 128.512 120.064C 103.88799 127.712006 86.383995 133.168 84.175995 133.888C 70.408 138.224 69.98399 138.656 68.2 151.664C 66.824 161.512 30.863998 440.976 30.863998 440.976L30.863998 440.976L311.03998 493.72803L462.86398 460.71204C 462.86398 460.71204 409.576 98.62402 409.24 96.13605C 408.904 93.656 406.728 92.28 404.936 92.136zM255.136 77.904C 255.136 78.856 255.12 79.752 255.12 80.656C 239.696 85.464 222.95999 90.664 206.152 95.904C 215.584 59.343998 233.24799 41.663998 248.71199 35C 252.592 44.808 255.136 58.904 255.136 77.904zM229.872 17.088C 232.64 17.088 235.37599 18.015999 238.01599 19.848C 217.704 29.439999 195.952 53.64 186.75198 101.936C 173.31998 106.112 160.19998 110.208 148.04799 113.98399C 158.816 77.128 184.368 17.088 229.872 17.088zM240.792 232.384C 240.792 232.384 224.39201 223.59201 204.30402 223.59201C 174.81601 223.59201 173.32802 242.184 173.32802 246.85602C 173.32802 272.41602 239.62402 282.216 239.62402 342.08002C 239.62402 389.18402 209.91202 419.50403 169.81602 419.50403C 121.720024 419.50403 97.11202 389.41602 97.11202 389.41602L97.11202 389.41602L109.984024 346.656C 109.984024 346.656 135.26402 368.488 156.62402 368.488C 170.54402 368.488 176.21602 357.448 176.21602 349.392C 176.21602 316.048 121.82402 314.56 121.82402 259.768C 121.82402 213.68001 154.75201 169.04001 221.24802 169.04001C 246.84001 169.04001 259.51202 176.42401 259.51202 176.42401L259.51202 176.42401L240.792 232.384zM271.744 75.488C 271.744 73.799995 271.75998 72.152 271.75998 70.336C 271.75998 54.607998 269.576 41.927998 266.08798 31.879997C 280.10397 33.631996 289.43997 49.663998 295.448 68.104C 288.416 70.312 280.416 72.792 271.744 75.488z" stroke="none" fill="#95C675" fill-rule="nonzero" />
        <path d="M404.936 92.136C 403.168 91.968 365.41602 89.168 365.41602 89.168C 365.41602 89.168 339.176 63 336.304 60.12C 333.42398 57.224 327.8 58.087997 325.60797 58.752C 325.29596 58.84 319.88797 60.528 310.93597 63.288C 302.16797 37.951996 286.71997 14.671997 259.52798 14.671997C 258.77597 14.671997 257.99997 14.703997 257.21597 14.751997C 249.488 4.488 239.904 0 231.624 0C 168.27199 0 152.63998 79.608 143.152 120.064C 118.52799 127.712006 99.63199 169.81601 97.399994 170.52C 83.647995 174.856 83.22399 175.28801 81.43199 188.304C 80.04799 198.144 30.86399 440.976 30.86399 440.976L30.86399 440.976L311.03998 493.72803L462.86398 460.71204C 462.86398 460.71204 409.576 98.62402 409.24 96.13605C 408.904 93.656 406.728 92.28 404.936 92.136zM255.136 77.904C 255.136 78.856 255.12 79.752 255.12 80.656C 239.696 85.464 222.95999 90.664 206.152 95.904C 215.584 59.343998 233.24799 41.663998 248.71199 35C 252.592 44.808 255.136 58.904 255.136 77.904zM229.872 17.088C 232.64 17.088 235.37599 18.015999 238.01599 19.848C 217.704 29.439999 195.952 53.64 186.75198 101.936C 173.31998 106.112 160.19998 110.208 148.04799 113.98399C 158.816 77.128 184.368 17.088 229.872 17.088zM240.792 232.384C 240.792 232.384 224.39201 223.59201 204.30402 223.59201C 174.81601 223.59201 173.32802 242.184 173.32802 246.85602C 173.32802 272.41602 239.62402 282.216 239.62402 342.08002C 239.62402 389.18402 209.91202 419.50403 169.81602 419.50403C 121.720024 419.50403 97.11202 389.41602 97.11202 389.41602L97.11202 389.41602L109.984024 346.656C 109.984024 346.656 135.26402 368.488 156.62402 368.488C 170.54402 368.488 176.21602 357.448 176.21602 349.392C 176.21602 316.048 121.82402 314.56 121.82402 259.768C 121.82402 213.68001 154.75201 169.04001 221.24802 169.04001C 246.84001 169.04001 259.51202 176.42401 259.51202 176.42401L259.51202 176.42401L240.792 232.384zM271.744 75.488C 271.744 73.799995 271.75998 72.152 271.75998 70.336C 271.75998 54.607998 269.576 41.927998 266.08798 31.879997C 280.10397 33.631996 289.43997 49.663998 295.448 68.104C 288.416 70.312 280.416 72.792 271.744 75.488z" stroke="none" fill="#79B259" fill-rule="nonzero" />
        <path d="M311.04 493.72L462.864 460.712C 462.864 460.712 409.57602 98.62399 409.24002 96.13602C 408.90402 93.64802 406.73602 92.280014 404.93604 92.13602C 403.16803 91.96802 365.41605 89.168015 365.41605 89.168015C 365.41605 89.168015 339.176 63 336.304 60.12C 334.76797 58.568 332.472 58.128 330.304 58.112C 324.54398 67.872 325.736 86.408 325.736 86.408L325.736 86.408L307.88 493.12L311.04 493.72z" stroke="none" fill="#55932C" fill-rule="nonzero" />
        <path d="M259.528 14.68C 258.776 14.68 258 14.712 257.216 14.76C 249.488 4.4960003 239.904 0.008000374 231.62401 0.008000374C 168.52802 0.008000374 138.23201 78.992004 128.62401 119.584L128.62401 119.584L148.20001 113.512C 159.03201 76.64 184.56001 17.087997 229.87201 17.087997C 232.64001 17.087997 235.376 18.015997 238.016 19.847998C 217.76001 29.407997 196.06401 53.519997 186.832 101.552L186.832 101.552L206.272 95.552C 215.728 59.224 233.32 41.64 248.728 35C 252.59999 44.816 255.152 58.904 255.152 77.904C 255.152 78.768 255.152 79.592 255.13599 80.416L255.13599 80.416L271.75998 75.272C 271.75998 73.672005 271.77597 72.07201 271.77597 70.336006C 271.77597 54.608006 269.59198 41.928005 266.10397 31.880005C 280.07196 33.624004 289.39996 49.584007 295.39996 67.944L295.39996 67.944L310.90396 63.136C 302.112 37.872 286.672 14.68 259.528 14.68z" stroke="none" fill="#4A7A2B" fill-rule="nonzero" />
        <path d="M371.752 89.648C 367.96002 89.352005 365.40802 89.168 365.40802 89.168C 365.40802 89.168 339.168 63 336.296 60.12C 334.75998 58.568 332.464 58.128 330.296 58.112C 324.53598 67.872 325.728 86.408 325.728 86.408L325.728 86.408L307.872 493.12L311.04 493.72L391.824 476.152L371.752 89.648z" stroke="none" fill="#4C822A" fill-rule="nonzero" />
		<g>
		</g>
		<g>
		</g>
		<g>
		</g>
		<g>
		</g>
		<g>
		</g>
		<g>
		</g>
		<g>
		</g>
		<g>
		</g>
		<g>
		</g>
		<g>
		</g>
		<g>
		</g>
		<g>
		</g>
		<g>
		</g>
		<g>
		</g>
		<g>
		</g>
	</g>
</g>
</svg>